<?xml version="1.0" encoding="UTF-8"?>
<svg id="Layer_2" data-name="Layer 2" xmlns="http://www.w3.org/2000/svg" viewBox="0 0 346.32 345.83">
  <defs>
    <style>
      .cls-1 {
        fill: #008fff;
        stroke: #008fff;
        stroke-miterlimit: 10;
        stroke-width: 15px;
      }
    </style>
  </defs>
  <g id="Circular-Mesh_copy" data-name="Circular-Mesh copy">
    <g>
      <path class="cls-1" d="m173,26.03l-16.22-16.22c-3.88.37-7.72.88-11.51,1.52-8.08,1.36-15.95,3.31-23.59,5.8-10.32,3.36-20.19,7.71-29.5,12.93-8.92,5-17.32,10.8-25.12,17.31-.54.44-1.08.89-1.61,1.36l-.08.07-18.09,18.09-.07.08c-.47.53-.92,1.07-1.36,1.61-6.51,7.8-12.31,16.2-17.31,25.12-5.22,9.31-9.57,19.18-12.93,29.5-2.49,7.64-4.44,15.51-5.8,23.59-.64,3.79-1.15,7.63-1.52,11.51-.52,5.33-.79,10.75-.79,16.22s.27,10.88.79,16.21c.37,3.88.88,7.73,1.52,11.52,1.37,8.08,3.31,15.95,5.8,23.58,3.36,10.32,7.71,20.19,12.93,29.51l22.99-22.99,15.41-15.4,7.53-7.54,13.68-13.67,11.04-11.05,10.17-10.17,21.22-21.21,21.21-21.21,21.21-21.22,10.17-10.17,11.05-11.04,13.67-13.68,7.54-7.53-42.43-42.43Zm-1.6,44.01l-19.62,19.62-21.21,21.22-21.21,21.21-21.22,21.21-19.62,19.62-1.59,1.6-21.21,21.21-4.72,4.71c-.72-3.65-1.28-7.36-1.69-11.12-.54-4.86-.81-9.8-.81-14.8s.27-9.95.81-14.81c.41-3.76.97-7.46,1.69-11.12,2.18-11.19,5.75-21.89,10.53-31.9,4.45-9.34,9.95-18.08,16.35-26.08,6.25-7.84,13.37-14.96,21.21-21.21,8-6.4,16.74-11.9,26.08-16.35,10.01-4.78,20.71-8.35,31.9-10.53l25.93,25.93-1.6,1.59Z"/>
      <path class="cls-1" d="m338.24,165.33c-1.83-.71-3.69-1.38-5.56-2.01-8.41-2.82-17.2-4.84-26.26-5.95-.38-2.96-.85-5.89-1.42-8.79-1.55-7.94-3.8-15.64-6.69-23.01-1.17-3.02-2.45-5.98-3.84-8.88-4.45-9.34-9.95-18.09-16.35-26.09l-20.27,20.28-1.11,1.1h0s-20.1,20.11-20.1,20.11l-1.44,1.43-1.65,1.65-18.13,18.13-2.19,2.19-19.02,19.03-21.21,21.21-19.03,19.02-21.97,21.97-1.43,1.44-20.1,20.1h-.01l-1.1,1.11-20.28,20.27-22.03,22.03c-.54-.45-1.08-.91-1.61-1.36l-18.27-18.27c-.44-.52-.89-1.05-1.33-1.58l21.09-21.09.94-.94,20.28-20.27,1.11-1.12,20.1-20.09,1.43-1.44,21.97-21.97,19.03-19.02,21.21-21.21,19.02-19.03,2.19-2.19,19.78-19.78,1.44-1.43,20.09-20.1,1.12-1.11,20.27-20.28.94-.94-21.21-21.21-21.22-21.22-14.69-14.69c8.08,1.37,15.95,3.31,23.58,5.8,10.32,3.36,20.19,7.71,29.51,12.93,8.92,5,17.32,10.8,25.12,17.3.51.42,1.02.85,1.52,1.27l18.39,18.39c.43.51.87,1.03,1.3,1.55,6.5,7.8,12.31,16.21,17.31,25.13,5.22,9.31,9.57,19.18,12.93,29.49.83,2.56,1.61,5.15,2.32,7.77,1.41,5.18,2.57,10.46,3.48,15.83h0c.64,3.8,1.15,7.62,1.52,11.5.23,2.33.41,4.68.53,7.04Z"/>
      <path class="cls-1" d="m336.91,197.54c-.22,1.58-.46,3.14-.72,4.7-1.37,8.08-3.31,15.96-5.8,23.6-.23.69-.46,1.37-.7,2.06-3.99-2.54-8.25-4.7-12.71-6.45-5.2-2.03-10.68-3.5-16.37-4.32-3.52-.52-7.12-.78-10.78-.78s-7.14.26-10.6.76c-.13,0-.26.03-.39.05-4,.59-7.9,1.5-11.67,2.7-6.67,2.12-12.93,5.17-18.64,8.98-8.4,5.59-15.59,12.86-21.11,21.31-3.68,5.63-6.62,11.79-8.67,18.34h-.01c-1.15,3.68-2.03,7.47-2.6,11.37-.07.42-.13.84-.18,1.26-.42,3.18-.63,6.43-.63,9.73,0,3.77.28,7.48.82,11.1.83,5.58,2.28,10.95,4.28,16.05,1.79,4.57,4.01,8.91,6.62,12.99-.91.31-1.82.62-2.73.92-7.64,2.49-15.52,4.43-23.6,5.8-1.33.22-2.65.43-4,.62h-.01c-4.62-9.06-7.97-18.89-9.79-29.25-.05-.25-.09-.5-.13-.75-4.53.45-9.13.69-13.79.69-5,0-9.94-.27-14.8-.81-.6-.06-1.2-.13-1.79-.21-3.15-.38-6.27-.88-9.35-1.48-7.75-1.51-15.26-3.69-22.47-6.47-3.2-1.24-6.34-2.59-9.42-4.06l9.21-9.21,6.2-6.19,7.53-7.54c5.74,2.04,11.71,3.58,17.86,4.58,5.03.83,10.19,1.3,15.44,1.37.53.02,1.06.02,1.59.02s1.05,0,1.58-.02c3.89-.05,7.73-.32,11.51-.8.54-4.48,1.36-8.88,2.46-13.17.75-2.95,1.62-5.86,2.62-8.7,1.29-3.71,2.79-7.32,4.49-10.82,2.88-5.97,6.31-11.63,10.22-16.9,5.99-8.07,13.11-15.24,21.14-21.28,5.31-4,11.02-7.51,17.06-10.45,1.24-3.93,2.16-8,2.73-12.19.46-3.32.69-6.72.69-10.17s-.23-6.85-.69-10.17l1.45-1.45,9.6-9.59,13.67-13.68c1.99,5.6,3.51,11.42,4.51,17.41.88,5.18,1.37,10.48,1.44,15.89.02.53.02,1.06.02,1.59s0,1.05-.02,1.58c-.05,3.74-.3,7.42-.74,11.06,4.29-.53,8.66-.81,13.09-.81.36,0,.72,0,1.08.01,5.43.05,10.75.52,15.95,1.38.4.06.8.12,1.2.2,10.2,1.79,19.9,5.07,28.85,9.6Z"/>
    </g>
  </g>
</svg>