<?xml version="1.0" encoding="UTF-8"?>
<svg id="Layer_2" data-name="Layer 2" xmlns="http://www.w3.org/2000/svg" xmlns:xlink="http://www.w3.org/1999/xlink" viewBox="0 0 177.52 293.7">
  <defs>
    <style>
      .cls-1 {
        fill: url(#linear-gradient);
      }

      .cls-1, .cls-2, .cls-3, .cls-4, .cls-5, .cls-6, .cls-7, .cls-8 {
        stroke-width: 0px;
      }

      .cls-2 {
        fill: #1a1a1a;
      }

      .cls-3 {
        fill: url(#linear-gradient-4);
      }

      .cls-4 {
        fill: url(#linear-gradient-2);
      }

      .cls-5 {
        fill: url(#linear-gradient-3);
      }

      .cls-6 {
        fill: url(#linear-gradient-5);
      }

      .cls-7 {
        fill: url(#linear-gradient-6);
      }

      .cls-8 {
        fill: #fff;
      }
    </style>
    <linearGradient id="linear-gradient" x1="45.35" y1="389.14" x2="45.35" y2="273.31" gradientTransform="translate(-88.72 -42.01) rotate(-30)" gradientUnits="userSpaceOnUse">
      <stop offset=".11" stop-color="#dce2d6"/>
      <stop offset=".42" stop-color="#f6ffe7"/>
      <stop offset=".69" stop-color="#9e98a2"/>
      <stop offset="1" stop-color="#f7f7f7"/>
    </linearGradient>
    <linearGradient id="linear-gradient-2" x1="80.14" y1="381.74" x2="80.14" y2="266.43" xlink:href="#linear-gradient"/>
    <linearGradient id="linear-gradient-3" x1="-97.57" y1="306.63" x2="-97.57" y2="190.8" gradientTransform="translate(101.21 -42.01) rotate(-150) scale(1 -1)" xlink:href="#linear-gradient"/>
    <linearGradient id="linear-gradient-4" x1="-62.78" y1="299.23" x2="-62.78" y2="183.92" gradientTransform="translate(101.21 -42.01) rotate(-150) scale(1 -1)" xlink:href="#linear-gradient"/>
    <linearGradient id="linear-gradient-5" x1="179.18" y1="-229.33" x2="53.65" y2="-354.86" gradientTransform="translate(-203.34 -27.66) rotate(90)" gradientUnits="userSpaceOnUse">
      <stop offset=".11" stop-color="#e8e0d8"/>
      <stop offset=".42" stop-color="#f8f4ed"/>
      <stop offset=".69" stop-color="#e8e0d8"/>
      <stop offset="1" stop-color="#fefefd"/>
    </linearGradient>
    <linearGradient id="linear-gradient-6" x1="145.82" y1="146.29" x2="31.7" y2="32.16" gradientUnits="userSpaceOnUse">
      <stop offset="0" stop-color="#fefefd"/>
      <stop offset=".31" stop-color="#e8e0d8"/>
      <stop offset=".58" stop-color="#f8f4ed"/>
      <stop offset=".89" stop-color="#e8e0d8"/>
    </linearGradient>
  </defs>
  <g id="silver">
    <g>
      <g>
        <g>
          <polygon class="cls-2" points="126.28 129.77 174.76 257.41 164.36 252.67 161.12 251.19 141.42 242.22 136.68 272.64 135.9 277.65 133.4 293.7 84.92 166.07 126.28 129.77"/>
          <polygon class="cls-1" points="96.44 166.68 136.68 272.64 135.9 277.65 94.42 168.45 96.44 166.68"/>
          <polygon class="cls-4" points="122.89 143.47 164.36 252.67 161.12 251.19 120.87 145.24 122.89 143.47"/>
          <polygon class="cls-2" points="51.24 129.77 2.76 257.41 13.16 252.67 16.41 251.19 36.1 242.22 40.84 272.64 41.62 277.65 44.12 293.7 92.6 166.07 51.24 129.77"/>
          <polygon class="cls-5" points="81.09 166.68 40.84 272.64 41.62 277.65 83.1 168.45 81.09 166.68"/>
          <polygon class="cls-3" points="54.64 143.47 13.16 252.67 16.41 251.19 56.65 145.24 54.64 143.47"/>
        </g>
        <g>
          <path class="cls-6" d="M123.31,170.55c10.57-4.47,20.06-10.87,28.21-19.02,8.15-8.15,14.55-17.64,19.02-28.21,4.63-10.94,6.98-22.57,6.98-34.55s-2.35-23.61-6.98-34.55c-4.47-10.57-10.87-20.06-19.02-28.21-8.15-8.15-17.64-14.55-28.21-19.02C112.37,2.35,100.74,0,88.76,0s-23.61,2.35-34.55,6.98c-10.57,4.47-20.06,10.87-28.21,19.02-8.15,8.15-14.55,17.64-19.02,28.21C2.35,65.15,0,76.78,0,88.76s2.35,23.61,6.98,34.55c4.47,10.57,10.87,20.06,19.02,28.21,8.15,8.15,17.64,14.55,28.21,19.02,10.94,4.63,22.57,6.98,34.55,6.98s23.61-2.35,34.55-6.98Z"/>
          <ellipse class="cls-7" cx="88.76" cy="89.22" rx="80.66" ry="80.74"/>
          <g>
            <g>
              <polygon class="cls-8" points="92.65 32.23 100.78 33.46 94.85 39.17 96.19 47.28 88.94 43.41 81.63 47.19 83.07 39.1 77.22 33.32 85.37 32.19 89.05 24.83 92.65 32.23"/>
              <polygon class="cls-8" points="61.85 41.99 67.11 42.79 63.28 46.49 64.15 51.74 59.45 49.23 54.72 51.68 55.65 46.44 51.86 42.7 57.14 41.97 59.52 37.21 61.85 41.99"/>
              <polygon class="cls-8" points="116.15 41.99 110.88 42.79 114.72 46.49 113.85 51.74 118.55 49.23 123.27 51.68 122.34 46.44 126.13 42.7 120.86 41.97 118.47 37.21 116.15 41.99"/>
            </g>
            <g>
              <polygon class="cls-8" points="85.35 149.32 77.22 148.09 83.14 142.38 81.8 134.27 89.06 138.14 96.36 134.36 94.92 142.46 100.78 148.23 92.63 149.36 88.94 156.72 85.35 149.32"/>
              <polygon class="cls-8" points="116.15 139.56 110.88 138.76 114.72 135.07 113.85 129.81 118.55 132.32 123.27 129.87 122.34 135.11 126.13 138.85 120.86 139.59 118.47 144.34 116.15 139.56"/>
              <polygon class="cls-8" points="61.85 139.56 67.11 138.76 63.28 135.07 64.15 129.81 59.45 132.32 54.72 129.87 55.65 135.11 51.86 138.85 57.14 139.59 59.52 144.34 61.85 139.56"/>
            </g>
          </g>
          <g>
            <g>
              <polygon class="cls-8" points="147.54 94.42 146.31 102.55 140.6 96.63 132.49 97.97 136.36 90.71 132.58 83.41 140.68 84.85 146.46 79 147.59 87.14 154.94 90.83 147.54 94.42"/>
              <polygon class="cls-8" points="137.78 63.63 136.98 68.89 133.29 65.06 128.04 65.92 130.54 61.23 128.09 56.5 133.34 57.43 137.08 53.64 137.81 58.92 142.57 61.3 137.78 63.63"/>
              <polygon class="cls-8" points="137.78 117.92 136.98 112.66 133.29 116.5 128.04 115.63 130.54 120.32 128.09 125.05 133.34 124.12 137.08 127.91 137.81 122.64 142.57 120.25 137.78 117.92"/>
            </g>
            <g>
              <polygon class="cls-8" points="30.45 87.13 31.69 79 37.39 84.92 45.51 83.58 41.63 90.84 45.42 98.14 37.32 96.7 31.54 102.55 30.41 94.41 23.06 90.72 30.45 87.13"/>
              <polygon class="cls-8" points="40.22 117.92 41.02 112.66 44.71 116.5 49.96 115.63 47.45 120.32 49.9 125.05 44.66 124.12 40.92 127.91 40.19 122.64 35.43 120.25 40.22 117.92"/>
              <polygon class="cls-8" points="40.22 63.63 41.02 68.89 44.71 65.06 49.96 65.92 47.45 61.23 49.9 56.5 44.66 57.43 40.92 53.64 40.19 58.92 35.43 61.3 40.22 63.63"/>
            </g>
          </g>
        </g>
      </g>
      <g>
        <path class="cls-8" d="M88.74,70.29l-2.19-2.2c-.52.05-1.04.12-1.55.21-1.09.18-2.15.45-3.18.79-1.39.46-2.72,1.05-3.98,1.76-1.2.68-2.34,1.47-3.39,2.35-.07.06-.15.12-.22.18h-.01s-2.44,2.47-2.44,2.47h0c-.06.08-.12.16-.18.23-.88,1.06-1.66,2.2-2.34,3.41-.7,1.26-1.29,2.6-1.74,4.01-.34,1.04-.6,2.11-.78,3.2-.09.51-.16,1.04-.21,1.56-.07.72-.11,1.46-.11,2.2s.04,1.48.11,2.2c.05.53.12,1.05.21,1.56.18,1.1.45,2.17.78,3.2.45,1.4,1.04,2.74,1.74,4.01l3.1-3.12,2.08-2.09,1.02-1.02,1.85-1.86,1.49-1.5,1.37-1.38,2.86-2.88,2.86-2.88,2.86-2.88,1.37-1.38,1.49-1.5,1.84-1.86,1.02-1.02-5.72-5.76ZM88.53,76.27l-2.65,2.66-2.86,2.88-2.86,2.88-2.86,2.88-2.65,2.66-.21.22-2.86,2.88-.64.64c-.1-.5-.17-1-.23-1.51-.07-.66-.11-1.33-.11-2.01s.04-1.35.11-2.01c.06-.51.13-1.01.23-1.51.29-1.52.78-2.97,1.42-4.33.6-1.27,1.34-2.46,2.21-3.54.84-1.06,1.8-2.03,2.86-2.88,1.08-.87,2.26-1.62,3.52-2.22,1.35-.65,2.79-1.13,4.3-1.43l3.5,3.52-.22.22Z"/>
        <path class="cls-8" d="M69.03,103.08l-.65-1.16c-.74-1.33-1.35-2.74-1.82-4.19-.35-1.08-.63-2.21-.82-3.34-.09-.54-.16-1.09-.21-1.64-.07-.76-.11-1.54-.11-2.3s.04-1.53.11-2.3c.05-.55.12-1.09.21-1.63.19-1.13.46-2.25.82-3.35.47-1.45,1.08-2.85,1.82-4.19.7-1.26,1.52-2.46,2.44-3.56.06-.07.13-.16.2-.24l2.49-2.51c.14-.12.22-.2.3-.26,1.09-.92,2.28-1.74,3.53-2.45,1.32-.75,2.72-1.37,4.16-1.84,1.09-.36,2.21-.63,3.33-.82.54-.09,1.08-.16,1.62-.22l.47-.04,8.95,9.01-26.85,27.03ZM86.18,69.13c-.34.04-.68.09-1.01.15-1.02.17-2.04.43-3.04.75-1.31.43-2.59.99-3.8,1.68-1.14.64-2.23,1.4-3.24,2.25-.07.06-.13.11-.2.17l-2.41,2.42s-.07.09-.12.15c-.85,1.03-1.6,2.12-2.24,3.27-.68,1.22-1.24,2.5-1.67,3.83-.32,1-.58,2.03-.75,3.06-.08.49-.15.99-.2,1.49-.07.7-.1,1.41-.1,2.11s.03,1.41.1,2.11c.05.51.11,1,.2,1.5.18,1.04.43,2.07.75,3.06.29.9.64,1.78,1.05,2.64l23.54-23.7-6.87-6.92ZM70.31,96.02l-.36-1.85c-.1-.52-.18-1.05-.24-1.6-.08-.69-.12-1.41-.12-2.12s.04-1.43.12-2.12c.06-.54.14-1.07.24-1.59.31-1.58.81-3.12,1.5-4.57.63-1.33,1.41-2.58,2.33-3.74.89-1.12,1.91-2.15,3.02-3.04,1.14-.92,2.39-1.71,3.71-2.34,1.44-.69,2.97-1.2,4.54-1.51l.52-.1,4.58,4.61-19.84,19.96ZM84.92,73.62c-1.22.28-2.41.7-3.54,1.24-1.18.57-2.3,1.27-3.32,2.1-1,.8-1.91,1.72-2.71,2.72-.82,1.03-1.52,2.16-2.09,3.35-.62,1.3-1.07,2.68-1.34,4.09-.09.47-.16.95-.22,1.43-.07.62-.1,1.26-.1,1.9,0,.46.02.92.05,1.38l15.68-15.79-2.41-2.43Z"/>
        <path class="cls-8" d="M111.03,89.21c-.25-.1-.5-.19-.75-.27-1.13-.38-2.32-.66-3.54-.81-.05-.4-.11-.8-.19-1.19-.21-1.08-.51-2.12-.9-3.13-.16-.41-.33-.81-.52-1.21-.6-1.27-1.34-2.46-2.21-3.54l-2.73,2.75-.15.15h0s-2.71,2.73-2.71,2.73l-.19.19-.22.22-2.45,2.46-.3.3-2.57,2.58-2.86,2.88-2.57,2.58-2.96,2.98-.19.2-2.71,2.73h0l-.15.15-2.74,2.75-2.97,2.99c-.07-.06-.15-.12-.22-.18l-2.46-2.48c-.06-.07-.12-.14-.18-.21l2.85-2.86.13-.13,2.74-2.75.15-.15,2.71-2.73.19-.2,2.96-2.98,2.57-2.58,2.86-2.88,2.57-2.58.3-.3,2.67-2.69.19-.19,2.71-2.73.15-.15,2.73-2.75.13-.13-2.86-2.88-2.86-2.88-1.98-2c1.09.19,2.15.45,3.18.79,1.39.46,2.72,1.05,3.98,1.76,1.2.68,2.34,1.47,3.39,2.35.07.06.14.12.21.17l2.48,2.5c.06.07.12.14.18.21.88,1.06,1.66,2.2,2.34,3.41.7,1.26,1.29,2.6,1.74,4.01.11.35.22.7.31,1.06.19.7.35,1.42.47,2.15h0c.09.52.16,1.03.21,1.56.03.32.06.64.07.96Z"/>
        <path class="cls-8" d="M74.51,109.08l-.99-.84-2.71-2.76-.58-.7,28.54-28.73-9.21-9.27,3.08.53c1.13.19,2.25.47,3.33.82,1.43.47,2.83,1.09,4.16,1.83,1.25.7,2.44,1.53,3.54,2.45l.27.23,2.72,2.78c.92,1.11,1.74,2.31,2.44,3.56.74,1.33,1.35,2.74,1.82,4.18.12.36.23.73.33,1.1.2.73.36,1.49.49,2.24.09.54.16,1.08.21,1.63.03.33.06.66.07,1l.08,1.54-1.44-.56c-.23-.09-.47-.18-.71-.26-1.08-.37-2.21-.62-3.34-.76l-.77-.1-.1-.77c-.05-.38-.11-.76-.18-1.13-.2-1.01-.48-2-.85-2.95-.15-.39-.31-.77-.49-1.14-.4-.85-.88-1.67-1.41-2.44l-28.3,28.49ZM72.98,104.86l1.45,1.46,28.57-28.77.7.88c.91,1.15,1.7,2.41,2.33,3.74.2.41.38.84.55,1.27.41,1.06.73,2.17.95,3.29.03.17.06.33.09.5.77.13,1.53.3,2.28.52-.04-.31-.08-.61-.13-.91-.12-.69-.27-1.38-.45-2.06-.09-.34-.19-.68-.3-1.01-.43-1.32-.99-2.61-1.67-3.82-.64-1.15-1.39-2.25-2.23-3.26l-.15-.18-2.58-2.56c-1.01-.85-2.1-1.6-3.24-2.25-1.09-.61-2.23-1.13-3.4-1.54l5.84,5.88-28.62,28.81Z"/>
        <path class="cls-8" d="M110.85,93.58c-.03.21-.06.43-.1.64-.18,1.1-.45,2.17-.78,3.21-.03.09-.06.19-.09.28-.54-.34-1.11-.64-1.71-.88-.7-.28-1.44-.48-2.21-.59-.47-.07-.96-.11-1.45-.11s-.96.04-1.43.1c-.02,0-.04,0-.05,0-.54.08-1.07.2-1.57.37-.9.29-1.74.7-2.51,1.22-1.13.76-2.1,1.75-2.85,2.89-.5.76-.89,1.6-1.17,2.49h0c-.16.5-.27,1.01-.35,1.54,0,.06-.02.11-.02.17-.06.43-.08.87-.08,1.32,0,.51.04,1.02.11,1.51.11.76.31,1.49.58,2.18.24.62.54,1.21.89,1.76-.12.04-.25.08-.37.12-1.03.34-2.09.6-3.18.79-.18.03-.36.06-.54.08h0c-.62-1.23-1.08-2.57-1.32-3.97,0-.03-.01-.07-.02-.1-.61.06-1.23.09-1.86.09-.67,0-1.34-.04-2-.11-.08,0-.16-.02-.24-.03-.42-.05-.85-.12-1.26-.2-1.05-.21-2.06-.5-3.03-.88-.43-.17-.86-.35-1.27-.55l1.24-1.25.84-.84,1.02-1.02c.77.28,1.58.49,2.41.62.68.11,1.37.18,2.08.19.07,0,.14,0,.21,0s.14,0,.21,0c.52,0,1.04-.04,1.55-.11.07-.61.18-1.21.33-1.79.1-.4.22-.8.35-1.18.17-.5.38-.99.61-1.47.39-.81.85-1.58,1.38-2.3.81-1.1,1.77-2.07,2.85-2.89.72-.54,1.49-1.02,2.3-1.42.17-.53.29-1.09.37-1.66.06-.45.09-.91.09-1.38s-.03-.93-.09-1.38l.2-.2,1.3-1.3,1.84-1.86c.27.76.47,1.55.61,2.36.12.7.18,1.42.19,2.16,0,.07,0,.14,0,.22s0,.14,0,.21c0,.51-.04,1.01-.1,1.5.58-.07,1.17-.11,1.77-.11.05,0,.1,0,.15,0,.73,0,1.45.07,2.15.19.05,0,.11.02.16.03,1.38.24,2.68.69,3.89,1.3Z"/>
        <path class="cls-8" d="M91.37,113.79l-.32-.64c-.56-1.1-.98-2.26-1.26-3.46-1.07.06-2.13.03-3.16-.09l-.26-.03c-.44-.05-.88-.12-1.32-.21-1.09-.21-2.16-.53-3.2-.93-.46-.18-.9-.37-1.34-.58l-1.27-.61,4.53-4.56.6.21c.72.26,1.48.45,2.23.58.64.11,1.29.16,1.93.17h.2s.17,0,.17,0c.24,0,.48-.01.72-.03.07-.38.15-.75.24-1.12.11-.43.23-.85.38-1.26.18-.53.4-1.06.65-1.57.41-.86.91-1.68,1.47-2.45.87-1.17,1.89-2.22,3.05-3.09.65-.49,1.34-.94,2.06-1.32.09-.36.17-.73.22-1.1.06-.4.08-.82.08-1.25s-.03-.84-.08-1.24l-.07-.49,4.81-4.84.53,1.5c.29.82.51,1.67.65,2.53.13.76.2,1.53.21,2.31v.23s0,.25,0,.25c0,.12,0,.25,0,.37.23-.01.45-.02.68-.02h.18c.75,0,1.53.08,2.29.2.05,0,.12.02.19.03,1.43.25,2.83.72,4.15,1.39l.63.32-.1.7c-.03.22-.06.45-.1.67-.19,1.14-.47,2.27-.82,3.35l-.51,1.5-1.07-.69c-.48-.31-1-.57-1.54-.79-.64-.25-1.31-.43-1.98-.53-.84-.13-1.74-.13-2.6,0-.53.08-1,.19-1.47.34-.8.26-1.56.62-2.26,1.1-1.03.69-1.89,1.56-2.57,2.61-.45.7-.81,1.45-1.05,2.24-.14.46-.25.93-.32,1.39l-.02.15c-.05.4-.08.8-.08,1.2,0,.45.03.91.1,1.36.1.67.27,1.33.52,1.96.22.55.49,1.09.81,1.59l.68,1.07-1.58.54c-1.08.35-2.2.63-3.33.82-.19.03-.38.06-.57.09l-.71.1ZM91.44,107.54l.15.93c.19,1.12.51,2.15.93,3.12.69-.12,1.37-.28,2.04-.47-.13-.27-.25-.54-.36-.82-.3-.77-.51-1.58-.63-2.4-.08-.54-.12-1.1-.12-1.65,0-.49.03-.98.09-1.45l.03-.2c.08-.55.21-1.12.38-1.68.3-.97.74-1.89,1.29-2.74.83-1.27,1.88-2.34,3.13-3.18.86-.58,1.79-1.03,2.77-1.34.56-.18,1.15-.32,1.73-.4h.12c.93-.15,2.09-.16,3.11,0,.82.12,1.64.34,2.43.65.26.1.51.21.76.33.19-.68.34-1.37.46-2.07-.95-.42-1.94-.72-2.96-.9l-.13-.02c-.67-.11-1.35-.17-2.02-.18h-.14c-.54,0-1.1.03-1.64.1l-1.27.16.15-1.27c.06-.46.09-.93.09-1.4v-.2s0-.18,0-.18c0-.69-.07-1.37-.18-2.03-.03-.21-.07-.41-.12-.61l-1.79,1.8c.03.33.05.67.05,1.02,0,.51-.03,1.03-.1,1.52-.08.62-.22,1.23-.41,1.82l-.13.41-.39.19c-.75.37-1.47.81-2.14,1.32-1.01.76-1.9,1.67-2.65,2.69-.49.67-.92,1.39-1.28,2.13-.21.44-.4.9-.56,1.36-.13.36-.24.73-.33,1.1-.14.54-.24,1.1-.31,1.66l-.09.77-.77.1c-.55.07-1.11.11-1.67.12-.11,0-.31,0-.48,0-.72,0-1.47-.08-2.21-.2-.67-.11-1.33-.26-1.97-.46l-1.62,1.63c.89.34,1.82.6,2.75.79.39.08.79.14,1.19.19l.22.03c1.2.13,2.43.14,3.65.02l.94-.09Z"/>
      </g>
    </g>
  </g>
</svg>